<?xml version="1.0" standalone="no"?>
<!DOCTYPE svg PUBLIC "-//W3C//DTD SVG 20010904//EN"
 "http://www.w3.org/TR/2001/REC-SVG-20010904/DTD/svg10.dtd">
<svg version="1.0" xmlns="http://www.w3.org/2000/svg"
 width="500.000000pt" height="500.000000pt" viewBox="0 0 500.000000 500.000000"
 preserveAspectRatio="xMidYMid meet">

<g transform="translate(0.000000,500.000000) scale(0.100000,-0.100000)"
fill="#000000" stroke="none">
<path d="M1235 4893 c-342 -13 -804 -56 -967 -89 l-28 -6 0 -2229 0 -2229 650
0 650 0 0 865 0 865 44 0 c68 0 192 -19 261 -41 131 -40 238 -156 305 -331 18
-46 77 -256 130 -468 125 -491 179 -667 247 -812 l36 -78 674 0 c370 0 673 2
673 5 0 3 -15 36 -34 73 -46 91 -101 266 -207 662 -176 652 -191 706 -240 830
-98 249 -221 419 -382 529 l-48 33 77 44 c299 170 509 443 595 773 26 100 36
339 20 480 -30 251 -135 485 -296 659 -179 194 -490 348 -831 411 -260 48
-464 61 -914 59 -190 -1 -376 -3 -415 -5z m1025 -78 c553 -51 932 -218 1151
-508 247 -326 299 -834 125 -1203 -125 -263 -354 -486 -608 -590 -38 -15 -68
-31 -68 -35 0 -4 30 -24 68 -43 197 -104 349 -301 457 -591 20 -55 97 -322
170 -595 138 -509 206 -743 231 -791 8 -16 14 -33 14 -39 0 -7 -159 -10 -506
-10 l-505 0 -28 63 c-61 133 -153 451 -274 942 -59 239 -96 346 -154 443 -73
123 -161 194 -298 239 -76 25 -94 27 -322 31 l-243 4 0 -861 0 -861 -490 0
-490 0 0 2165 c0 1723 3 2167 13 2170 42 16 583 68 807 78 228 11 800 6 950
-8z m-1840 -2235 l0 -2180 -60 0 -60 0 2 2173 3 2172 40 6 c22 3 48 7 58 8 16
1 17 -109 17 -2179z m1683 -583 c106 -56 195 -178 253 -351 13 -38 55 -196 94
-350 86 -347 168 -635 220 -774 22 -58 40 -109 40 -114 0 -4 -22 -8 -50 -8
-61 0 -67 8 -122 162 -59 168 -118 376 -207 735 -45 177 -94 359 -111 405 -52
141 -134 261 -225 326 l-30 21 40 -10 c22 -6 66 -25 98 -42z"/>
<path d="M1690 4090 c-69 -5 -145 -13 -170 -17 l-45 -9 -3 -607 -2 -607 237 0
c260 0 377 12 505 53 222 71 375 225 423 428 8 35 15 107 15 160 0 319 -173
519 -508 585 -97 18 -296 25 -452 14z m303 -89 c197 -51 319 -153 378 -316 19
-50 22 -82 22 -195 1 -115 -3 -144 -21 -194 -30 -80 -74 -147 -133 -200 -135
-122 -311 -176 -571 -176 l-128 0 0 544 0 545 43 5 c96 13 117 14 222 11 68
-2 140 -12 188 -24z m323 -51 c128 -64 210 -159 251 -290 23 -77 24 -265 0
-340 -38 -122 -123 -229 -233 -292 -56 -33 -174 -83 -174 -74 0 2 22 18 50 36
107 69 197 193 236 326 23 79 23 255 -1 344 -33 127 -113 243 -215 312 -48 33
5 19 86 -22z"/>
</g>
</svg>
